# xmcd CD database file
#
# Track frame offsets:
#	150
#	19132
#	52457
#	75642
#	98974
#	122330
#	168488
#	192094
#	211517
#	230154
#
# Disc length: 3449 seconds
#
# Revision: 0
# Processed by: cddbd v1.5.1PL2 Copyright (c) Steve Scherf et al.
# Submitted via: CDex 1.51
#
DISCID=810d770a
DTITLE=Ben-Hur, Roni - Sofia´s Butterfly
DYEAR=1977
DGENRE=Jazz
TTITLE0=The Fruit
TTITLE1=Sofia´s Butterfly
TTITLE2=Like This
TTITLE3=Mr. W.
TTITLE4=Four In One
TTITLE5=Tin Tin Deo
TTITLE6=Choices
TTITLE7=I Didn´t Know About You
TTITLE8=Rocker
TTITLE9=Fortuna
EXTD=YEAR: 1977
EXTT0=
EXTT1=
EXTT2=
EXTT3=
EXTT4=
EXTT5=
EXTT6=
EXTT7=
EXTT8=
EXTT9=
PLAYORDER=
